<?xml version="1.0" encoding="utf-8"?>
<svg width="32" height="32" viewBox="0 0 32 32" fill="none" xmlns="http://www.w3.org/2000/svg">
  <g>
    <rect width="32" height="32" />
    <path id="Vector" d="M11.6667 0C9.63334 0 7.68329 0.807736 6.24551 2.24551C4.80774 3.68329 4 5.63334 4 7.66667L4 9.33333L1 9.33333C0.447715 9.33333 0 9.78105 0 10.3333L0 15.6667C0 16.219 0.447715 16.6667 1 16.6667L4 16.6667L4 25C4 25.5523 4.44772 26 5 26L10.3333 26C10.8856 26 11.3333 25.5523 11.3333 25L11.3333 16.6667L14.3333 16.6667C14.7922 16.6667 15.1922 16.3544 15.3035 15.9092L16.6368 10.5759C16.7115 10.2771 16.6444 9.96064 16.4549 9.71792C16.2654 9.47521 15.9746 9.33333 15.6667 9.33333L11.3333 9.33333L11.3333 7.66667C11.3333 7.57826 11.3685 7.49348 11.431 7.43096C11.4935 7.36845 11.5783 7.33333 11.6667 7.33333L15.6667 7.33333C16.219 7.33333 16.6667 6.88562 16.6667 6.33333L16.6667 1C16.6667 0.447715 16.219 0 15.6667 0L11.6667 0L11.6667 0ZM15.6667 10.3333L16.6667 11.3333L15.6667 10.3334L15.6667 10.3333L15.6667 10.3333ZM14.3333 15.6666L15.3333 16.6666L14.3333 15.6669L14.3333 15.6666L14.3333 15.6666ZM14.3859 11.3333L13.5525 14.6667L10.3333 14.6667C9.78105 14.6667 9.33333 15.1144 9.33333 15.6667L9.33333 24L6 24L6 15.6667C6 15.1144 5.55228 14.6667 5 14.6667L2 14.6667L2 11.3333L5 11.3333C5.55228 11.3333 6 10.8856 6 10.3333L6 7.66667C6 6.16377 6.59702 4.72243 7.65973 3.65973C8.72243 2.59702 10.1638 2 11.6667 2L14.6667 2L14.6667 5.33333L11.6667 5.33333C11.0478 5.33333 10.4543 5.57917 10.0168 6.01675C9.57917 6.45434 9.33333 7.04783 9.33333 7.66667L9.33333 10.3333C9.33333 10.8856 9.78105 11.3333 10.3333 11.3333L14.3859 11.3333L14.3859 11.3333Z" fill="#D5C9BE" fill-rule="evenodd" transform="translate(8.332 3)" />
  </g>
</svg>