<?xml version="1.0" encoding="utf-8"?>
<svg width="32" height="32" viewBox="0 0 32 32" fill="none" xmlns="http://www.w3.org/2000/svg">
  <g>
    <rect width="32" height="32" />
    <path id="Vector" d="M6.33333 0C2.83553 0 0 2.83553 0 6.33333L0 17C0 20.4978 2.83553 23.3333 6.33333 23.3333L17 23.3333C20.4978 23.3333 23.3333 20.4978 23.3333 17L23.3333 6.33333C23.3333 2.83553 20.4978 0 17 0L6.33333 0L6.33333 0ZM2 6.33333C2 3.9401 3.9401 2 6.33333 2L17 2C19.3932 2 21.3333 3.9401 21.3333 6.33333L21.3333 17C21.3333 19.3932 19.3932 21.3333 17 21.3333L6.33333 21.3333C3.9401 21.3333 2 19.3932 2 17L2 6.33333L2 6.33333Z" fill="#D5C9BE" fill-rule="evenodd" transform="translate(4.332 4.333)" />
    <path id="Vector" d="M5 0C2.23858 0 0 2.23858 0 5C0 7.76142 2.23858 10 5 10C7.76142 10 10 7.76142 10 5C10 2.23858 7.76142 0 5 0L5 0ZM2 5C2 3.34315 3.34315 2 5 2C6.65685 2 8 3.34315 8 5C8 6.65685 6.65685 8 5 8C3.34315 8 2 6.65685 2 5L2 5Z" fill="#D5C9BE" fill-rule="evenodd" transform="translate(11 11)" />
    <path id="Vector" d="M1 0C1.55228 0 2 0.447715 2 1L2 1.001C2 1.55328 1.55228 2.001 1 2.001C0.447716 2.001 0 1.55328 0 1.001L0 1C0 0.447715 0.447716 0 1 0L1 0Z" fill="#D5C9BE" fill-rule="evenodd" transform="translate(21 9)" />
  </g>
</svg>