<?xml version="1.0" encoding="utf-8"?>
<svg width="32" height="32" viewBox="0 0 32 32" fill="none" xmlns="http://www.w3.org/2000/svg">
  <g>
    <rect width="32" height="32" />
    <path id="Vector" d="M3.66667 0C1.64162 0 0 1.64162 0 3.66667L0 19.6667C0 21.6917 1.64162 23.3333 3.66667 23.3333L19.6667 23.3333C21.6917 23.3333 23.3333 21.6917 23.3333 19.6667L23.3333 3.66667C23.3333 1.64162 21.6917 0 19.6667 0L3.66667 0L3.66667 0ZM2 3.66667C2 2.74619 2.74619 2 3.66667 2L19.6667 2C20.5871 2 21.3333 2.74619 21.3333 3.66667L21.3333 19.6667C21.3333 20.5871 20.5871 21.3333 19.6667 21.3333L3.66667 21.3333C2.74619 21.3333 2 20.5871 2 19.6667L2 3.66667L2 3.66667Z" fill="#D5C9BE" fill-rule="evenodd" transform="translate(4.332 4.333)" />
    <path id="Vector" d="M1 0C1.55229 0 2 0.447715 2 1L2 7.66667C2 8.21895 1.55229 8.66667 1 8.66667C0.447715 8.66667 0 8.21895 0 7.66667L0 1C0 0.447715 0.447715 0 1 0L1 0Z" fill="#D5C9BE" fill-rule="evenodd" transform="translate(9.668 13.667)" />
    <path id="Vector" d="M1 0C1.55229 0 2 0.447715 2 1L2 1.01333C2 1.56562 1.55229 2.01333 1 2.01333C0.447715 2.01333 0 1.56562 0 1.01333L0 1C0 0.447715 0.447715 0 1 0L1 0Z" fill="#D5C9BE" fill-rule="evenodd" transform="translate(9.668 9.667)" />
    <path id="Vector" d="M1 0C1.55228 0 2 0.447715 2 1L2 7.66667C2 8.21895 1.55228 8.66667 1 8.66667C0.447715 8.66667 0 8.21895 0 7.66667L0 1C0 0.447715 0.447715 0 1 0L1 0Z" fill="#D5C9BE" fill-rule="evenodd" transform="translate(15 13.667)" />
    <path id="Vector" d="M3.66667 0C2.69421 0 1.76158 0.386309 1.07394 1.07394C0.386309 1.76157 0 2.69421 0 3.66667C0 4.21895 0.447715 4.66667 1 4.66667C1.55228 4.66667 2 4.21895 2 3.66667C2 3.22464 2.17559 2.80072 2.48816 2.48816C2.80072 2.17559 3.22464 2 3.66667 2C4.10869 2 4.53262 2.17559 4.84518 2.48816C5.15774 2.80072 5.33333 3.22464 5.33333 3.66667L5.33333 7.66667C5.33333 8.21895 5.78105 8.66667 6.33333 8.66667C6.88562 8.66667 7.33333 8.21895 7.33333 7.66667L7.33333 3.66667C7.33333 2.69421 6.94702 1.76157 6.25939 1.07394C5.57176 0.386309 4.63913 0 3.66667 0L3.66667 0Z" fill="#D5C9BE" fill-rule="evenodd" transform="translate(15 13.667)" />
  </g>
</svg>