<?xml version="1.0" encoding="utf-8"?>
<svg width="32" height="32" viewBox="0 0 32 32" fill="none" xmlns="http://www.w3.org/2000/svg">
  <g>
    <rect width="32" height="32" />
    <path id="Vector" d="M25.9701 1.24256C26.0608 0.879915 25.9416 0.496989 25.6612 0.249826C25.3808 0.00266218 24.9859 -0.067471 24.6376 0.0680141L0.637559 9.40135C0.268919 9.54471 0.0194185 9.89188 0.00108051 10.287C-0.0172546 10.6821 0.199014 11.0509 0.552791 11.2278L5.51564 13.7092L8.05133 21.3162C8.16895 21.6691 8.47269 21.9275 8.83983 21.9871C9.20697 22.0467 9.57684 21.8976 9.80001 21.6L13.1082 17.1891L18.9596 23.0404C19.2143 23.2952 19.5864 23.3932 19.9336 23.297C20.2808 23.2009 20.5494 22.9254 20.6368 22.5759L25.9701 1.24256L25.9701 1.24256ZM13.6995 14.9519C13.7053 14.9576 13.711 14.9633 13.7167 14.9691L19.1249 20.3773L23.5611 2.63251L3.46481 10.4477L6.78056 12.1056C7.01777 12.2242 7.19816 12.4322 7.28203 12.6838L9.34514 18.8732L11.6797 15.7605L10.9596 15.0404C10.569 14.6499 10.569 14.0168 10.9596 13.6262L16.2929 8.29291C16.6834 7.90239 17.3166 7.90239 17.7071 8.29291C18.0976 8.68344 18.0976 9.3166 17.7071 9.70713L13.0809 14.3333L13.6995 14.9519L13.6995 14.9519Z" fill="#D5C9BE" fill-rule="evenodd" transform="translate(3 4.333)" />
  </g>
</svg>