<?xml version="1.0" encoding="utf-8"?>
<svg width="32" height="32" viewBox="0 0 32 32" fill="none" xmlns="http://www.w3.org/2000/svg">
  <g>
    <rect width="32" height="32" />
    <path id="Vector" d="M12.6667 1C12.6667 0.447715 12.219 0 11.6667 0C11.1144 0 10.6667 0.447715 10.6667 1L10.6667 17C10.6667 17.8571 10.4125 18.6949 9.93637 19.4075C9.46022 20.1201 8.78344 20.6755 7.99163 21.0035C7.19982 21.3315 6.32853 21.4173 5.48794 21.2501C4.64736 21.0829 3.87523 20.6702 3.26921 20.0641C2.66318 19.4581 2.25047 18.686 2.08327 17.8454C1.91607 17.0048 2.00188 16.1335 2.32986 15.3417C2.65784 14.5499 3.21325 13.8731 3.92586 13.397C4.63848 12.9208 5.47628 12.6667 6.33334 12.6667C6.88562 12.6667 7.33334 12.219 7.33334 11.6667C7.33334 11.1144 6.88562 10.6667 6.33334 10.6667C5.08072 10.6667 3.85624 11.0381 2.81472 11.734C1.77321 12.4299 0.961455 13.4191 0.4821 14.5763C0.00274563 15.7336 -0.122678 17.007 0.121697 18.2356C0.36607 19.4641 0.969261 20.5926 1.85499 21.4783C2.74072 22.3641 3.86922 22.9673 5.09776 23.2116C6.32631 23.456 7.59973 23.3306 8.757 22.8512C9.91426 22.3719 10.9034 21.5601 11.5993 20.5186C12.2952 19.4771 12.6667 18.2526 12.6667 17L12.6667 6.16401C12.7464 6.25141 12.8282 6.33716 12.9122 6.42115C14.35 7.85893 16.3 8.66667 18.3333 8.66667C18.8856 8.66667 19.3333 8.21895 19.3333 7.66667C19.3333 7.11438 18.8856 6.66667 18.3333 6.66667C16.8304 6.66667 15.3891 6.06964 14.3264 5.00694C13.2637 3.94423 12.6667 2.50289 12.6667 1L12.6667 1Z" fill="#D5C9BE" fill-rule="evenodd" transform="translate(5.668 4.333)" />
  </g>
</svg>