<?xml version="1.0" encoding="utf-8"?>
<svg width="32" height="32" viewBox="0 0 32 32" fill="none" xmlns="http://www.w3.org/2000/svg">
  <g>
    <rect width="32" height="32" />
    <path id="Vector" d="M6.33333 0C2.83553 0 0 2.83553 0 6.33333L0 14.3333C0 17.8311 2.83553 20.6667 6.33333 20.6667L19.6667 20.6667C23.1645 20.6667 26 17.8311 26 14.3333L26 6.33333C26 2.83553 23.1645 0 19.6667 0L6.33333 0L6.33333 0ZM2 6.33333C2 3.9401 3.9401 2 6.33333 2L19.6667 2C22.0599 2 24 3.9401 24 6.33333L24 14.3333C24 16.7266 22.0599 18.6667 19.6667 18.6667L6.33333 18.6667C3.9401 18.6667 2 16.7266 2 14.3333L2 6.33333L2 6.33333Z" fill="#D5C9BE" fill-rule="evenodd" transform="translate(3 5.667)" />
    <path id="Vector" d="M1.5145 0.142509C1.20556 -0.0428486 0.82081 -0.0477085 0.507301 0.129802C0.193793 0.307307 0 0.639729 0 1L0 9C0 9.36027 0.193793 9.69269 0.507301 9.8702C0.82081 10.0477 1.20556 10.0429 1.5145 9.85749L8.18116 5.85749C8.48237 5.67677 8.66667 5.35126 8.66667 5C8.66667 4.64874 8.48237 4.32323 8.18116 4.14251L1.5145 0.142509L1.5145 0.142509ZM2 7.23381L2 2.76619L5.72302 5L2 7.23381L2 7.23381Z" fill="#D5C9BE" fill-rule="evenodd" transform="translate(12.332 11)" />
  </g>
</svg>